<svg xmlns="http://www.w3.org/2000/svg" width="1496.8" height="428.0" xmlns:xlink="http://www.w3.org/1999/xlink"><rect x="0" y="0.0" width="1496.8" height="428.0" fill="#ffffff" /><text x="20.0" y="40.0" font-size="16px" dominant-baseline="middle" text-anchor="start" font-family="Arial" font-weight="normal" fill="#252b3a" >q0: </text><text x="20.0" y="100.0" font-size="16px" dominant-baseline="middle" text-anchor="start" font-family="Arial" font-weight="normal" fill="#252b3a" >q1: </text><text x="20.0" y="160.0" font-size="16px" dominant-baseline="middle" text-anchor="start" font-family="Arial" font-weight="normal" fill="#252b3a" >q2: </text><text x="20.0" y="220.0" font-size="16px" dominant-baseline="middle" text-anchor="start" font-family="Arial" font-weight="normal" fill="#252b3a" >q3: </text><text x="20.0" y="280.0" font-size="16px" dominant-baseline="middle" text-anchor="start" font-family="Arial" font-weight="normal" fill="#252b3a" >q4: </text><text x="20.0" y="340.0" font-size="16px" dominant-baseline="middle" text-anchor="start" font-family="Arial" font-weight="normal" fill="#252b3a" >q5: </text><text x="20.0" y="400.0" font-size="16px" dominant-baseline="middle" text-anchor="start" font-family="Arial" font-weight="normal" fill="#252b3a" >q6: </text><line x1="48.8" x2="1476.8" y1="40.0" y2="40.0" stroke="#adb0b8" stroke-width="1" /><line x1="48.8" x2="1476.8" y1="100.0" y2="100.0" stroke="#adb0b8" stroke-width="1" /><line x1="48.8" x2="1476.8" y1="160.0" y2="160.0" stroke="#adb0b8" stroke-width="1" /><line x1="48.8" x2="1476.8" y1="220.0" y2="220.0" stroke="#adb0b8" stroke-width="1" /><line x1="48.8" x2="1476.8" y1="280.0" y2="280.0" stroke="#adb0b8" stroke-width="1" /><line x1="48.8" x2="1476.8" y1="340.0" y2="340.0" stroke="#adb0b8" stroke-width="1" /><line x1="48.8" x2="1476.8" y1="400.0" y2="400.0" stroke="#adb0b8" stroke-width="1" /><rect x="72.8" y="80.0" width="40.0" height="40" rx="4" ry="4" stroke="#ffffff" stroke-width="0" fill="#5e7ce0" fill-opacity="1" /><text x="92.8" y="100.0" font-size="20px" dominant-baseline="middle" text-anchor="middle" font-family="Arial" font-weight="normal" fill="#ffffff" >X </text><circle cx="192.8" cy="100.0" r="4" fill="#fac209" /><circle cx="192.8" cy="160.0" r="4" fill="#fac209" /><circle cx="192.8" cy="220.0" r="4" fill="#fac209" /><circle cx="192.8" cy="280.0" r="4" fill="#fac209" /><circle cx="192.8" cy="340.0" r="4" fill="#fac209" /><circle cx="192.8" cy="400.0" r="4" fill="#fac209" /><line x1="192.8" x2="192.8" y1="40.0" y2="400.0" stroke="#fac209" stroke-width="3" /><rect x="132.8" y="20.0" width="120.0" height="40" rx="4" ry="4" stroke="#ffffff" stroke-width="0" fill="#fac209" fill-opacity="1" /><text x="192.8" y="36.0" font-size="20px" dominant-baseline="middle" text-anchor="middle" font-family="Arial" font-weight="normal" fill="#ffffff" >RY </text><text x="192.8" y="52.0" font-size="14.0px" dominant-baseline="middle" text-anchor="middle" font-family="Arial" font-weight="normal" fill="#ffffff" >com_62com_62 </text><rect x="272.8" y="140.0" width="40.0" height="40" rx="4" ry="4" stroke="#ffffff" stroke-width="0" fill="#5e7ce0" fill-opacity="1" /><text x="292.8" y="160.0" font-size="20px" dominant-baseline="middle" text-anchor="middle" font-family="Arial" font-weight="normal" fill="#ffffff" >X </text><circle cx="392.8" cy="100.0" r="4" fill="#fac209" /><circle cx="392.8" cy="160.0" r="4" fill="#fac209" /><circle cx="392.8" cy="220.0" r="4" fill="#fac209" /><circle cx="392.8" cy="280.0" r="4" fill="#fac209" /><circle cx="392.8" cy="340.0" r="4" fill="#fac209" /><circle cx="392.8" cy="400.0" r="4" fill="#fac209" /><line x1="392.8" x2="392.8" y1="40.0" y2="400.0" stroke="#fac209" stroke-width="3" /><rect x="332.8" y="20.0" width="120.0" height="40" rx="4" ry="4" stroke="#ffffff" stroke-width="0" fill="#fac209" fill-opacity="1" /><text x="392.8" y="36.0" font-size="20px" dominant-baseline="middle" text-anchor="middle" font-family="Arial" font-weight="normal" fill="#ffffff" >RY </text><text x="392.8" y="52.0" font-size="14.0px" dominant-baseline="middle" text-anchor="middle" font-family="Arial" font-weight="normal" fill="#ffffff" >com_60com_60 </text><rect x="472.8" y="80.0" width="40.0" height="40" rx="4" ry="4" stroke="#ffffff" stroke-width="0" fill="#5e7ce0" fill-opacity="1" /><text x="492.8" y="100.0" font-size="20px" dominant-baseline="middle" text-anchor="middle" font-family="Arial" font-weight="normal" fill="#ffffff" >X </text><circle cx="592.8" cy="100.0" r="4" fill="#fac209" /><circle cx="592.8" cy="160.0" r="4" fill="#fac209" /><circle cx="592.8" cy="220.0" r="4" fill="#fac209" /><circle cx="592.8" cy="280.0" r="4" fill="#fac209" /><circle cx="592.8" cy="340.0" r="4" fill="#fac209" /><circle cx="592.8" cy="400.0" r="4" fill="#fac209" /><line x1="592.8" x2="592.8" y1="40.0" y2="400.0" stroke="#fac209" stroke-width="3" /><rect x="532.8" y="20.0" width="120.0" height="40" rx="4" ry="4" stroke="#ffffff" stroke-width="0" fill="#fac209" fill-opacity="1" /><text x="592.8" y="36.0" font-size="20px" dominant-baseline="middle" text-anchor="middle" font-family="Arial" font-weight="normal" fill="#ffffff" >RY </text><text x="592.8" y="52.0" font-size="14.0px" dominant-baseline="middle" text-anchor="middle" font-family="Arial" font-weight="normal" fill="#ffffff" >com_61com_61 </text><rect x="672.8" y="200.0" width="40.0" height="40" rx="4" ry="4" stroke="#ffffff" stroke-width="0" fill="#5e7ce0" fill-opacity="1" /><text x="692.8" y="220.0" font-size="20px" dominant-baseline="middle" text-anchor="middle" font-family="Arial" font-weight="normal" fill="#ffffff" >X </text><circle cx="792.8" cy="100.0" r="4" fill="#fac209" /><circle cx="792.8" cy="160.0" r="4" fill="#fac209" /><circle cx="792.8" cy="220.0" r="4" fill="#fac209" /><circle cx="792.8" cy="280.0" r="4" fill="#fac209" /><circle cx="792.8" cy="340.0" r="4" fill="#fac209" /><circle cx="792.8" cy="400.0" r="4" fill="#fac209" /><line x1="792.8" x2="792.8" y1="40.0" y2="400.0" stroke="#fac209" stroke-width="3" /><rect x="732.8" y="20.0" width="120.0" height="40" rx="4" ry="4" stroke="#ffffff" stroke-width="0" fill="#fac209" fill-opacity="1" /><text x="792.8" y="36.0" font-size="20px" dominant-baseline="middle" text-anchor="middle" font-family="Arial" font-weight="normal" fill="#ffffff" >RY </text><text x="792.8" y="52.0" font-size="14.0px" dominant-baseline="middle" text-anchor="middle" font-family="Arial" font-weight="normal" fill="#ffffff" >com_57com_57 </text><rect x="872.8" y="80.0" width="40.0" height="40" rx="4" ry="4" stroke="#ffffff" stroke-width="0" fill="#5e7ce0" fill-opacity="1" /><text x="892.8" y="100.0" font-size="20px" dominant-baseline="middle" text-anchor="middle" font-family="Arial" font-weight="normal" fill="#ffffff" >X </text><circle cx="992.8" cy="100.0" r="4" fill="#fac209" /><circle cx="992.8" cy="160.0" r="4" fill="#fac209" /><circle cx="992.8" cy="220.0" r="4" fill="#fac209" /><circle cx="992.8" cy="280.0" r="4" fill="#fac209" /><circle cx="992.8" cy="340.0" r="4" fill="#fac209" /><circle cx="992.8" cy="400.0" r="4" fill="#fac209" /><line x1="992.8" x2="992.8" y1="40.0" y2="400.0" stroke="#fac209" stroke-width="3" /><rect x="932.8" y="20.0" width="120.0" height="40" rx="4" ry="4" stroke="#ffffff" stroke-width="0" fill="#fac209" fill-opacity="1" /><text x="992.8" y="36.0" font-size="20px" dominant-baseline="middle" text-anchor="middle" font-family="Arial" font-weight="normal" fill="#ffffff" >RY </text><text x="992.8" y="52.0" font-size="14.0px" dominant-baseline="middle" text-anchor="middle" font-family="Arial" font-weight="normal" fill="#ffffff" >com_56com_56 </text><rect x="1072.8" y="140.0" width="40.0" height="40" rx="4" ry="4" stroke="#ffffff" stroke-width="0" fill="#5e7ce0" fill-opacity="1" /><text x="1092.8" y="160.0" font-size="20px" dominant-baseline="middle" text-anchor="middle" font-family="Arial" font-weight="normal" fill="#ffffff" >X </text><circle cx="1192.8" cy="100.0" r="4" fill="#fac209" /><circle cx="1192.8" cy="160.0" r="4" fill="#fac209" /><circle cx="1192.8" cy="220.0" r="4" fill="#fac209" /><circle cx="1192.8" cy="280.0" r="4" fill="#fac209" /><circle cx="1192.8" cy="340.0" r="4" fill="#fac209" /><circle cx="1192.8" cy="400.0" r="4" fill="#fac209" /><line x1="1192.8" x2="1192.8" y1="40.0" y2="400.0" stroke="#fac209" stroke-width="3" /><rect x="1132.8" y="20.0" width="120.0" height="40" rx="4" ry="4" stroke="#ffffff" stroke-width="0" fill="#fac209" fill-opacity="1" /><text x="1192.8" y="36.0" font-size="20px" dominant-baseline="middle" text-anchor="middle" font-family="Arial" font-weight="normal" fill="#ffffff" >RY </text><text x="1192.8" y="52.0" font-size="14.0px" dominant-baseline="middle" text-anchor="middle" font-family="Arial" font-weight="normal" fill="#ffffff" >com_58com_58 </text><rect x="1272.8" y="80.0" width="40.0" height="40" rx="4" ry="4" stroke="#ffffff" stroke-width="0" fill="#5e7ce0" fill-opacity="1" /><text x="1292.8" y="100.0" font-size="20px" dominant-baseline="middle" text-anchor="middle" font-family="Arial" font-weight="normal" fill="#ffffff" >X </text><circle cx="1392.8" cy="100.0" r="4" fill="#fac209" /><circle cx="1392.8" cy="160.0" r="4" fill="#fac209" /><circle cx="1392.8" cy="220.0" r="4" fill="#fac209" /><circle cx="1392.8" cy="280.0" r="4" fill="#fac209" /><circle cx="1392.8" cy="340.0" r="4" fill="#fac209" /><circle cx="1392.8" cy="400.0" r="4" fill="#fac209" /><line x1="1392.8" x2="1392.8" y1="40.0" y2="400.0" stroke="#fac209" stroke-width="3" /><rect x="1332.8" y="20.0" width="120.0" height="40" rx="4" ry="4" stroke="#ffffff" stroke-width="0" fill="#fac209" fill-opacity="1" /><text x="1392.8" y="36.0" font-size="20px" dominant-baseline="middle" text-anchor="middle" font-family="Arial" font-weight="normal" fill="#ffffff" >RY </text><text x="1392.8" y="52.0" font-size="14.0px" dominant-baseline="middle" text-anchor="middle" font-family="Arial" font-weight="normal" fill="#ffffff" >com_59com_59 </text></svg>